PathFileType	4	(x/y/z)	S10_M20_T34
DataRate	CameraRate	NumFrames	NumMarkers	Units	OrigDataRate	OrigDataStartFrame	OrigNumFrames
240	240	6	51	mm	240	201	534
Frame#	Time	Sternum			R.Acromium			L.Acromium			Top.Head			R.ASIS			L.ASIS			R.PSIS			L.PSIS			R.Great.Tro			L.Great.Tro			R.Iliac.Crest			L.Iliac.Crest			V.Sacral			R.Thigh.Upper.Post			R.Thigh.Lower.Ant			R.Thigh.Lower.Post			R.Thigh.Upper.Ant			R.Knee.Lat			R.Knee.Med			R.Shank.Upper.Post			R.Shank.Lower.Ant			R.Shank.Lower.Post			R.Shank.Upper.Ant			R.Ankle.Lat			R.Ankle.Med			R.Heel.Upper			R.Heel.Med			R.Heel.Lat			R.Toe.Lat			R.Toe.Med			R.Toe.Tip			L.Thigh.Upper.Post			L.Thigh.Lower.Ant			L.Thigh.Lower.Post			L.Thigh.Upper.Ant			L.Knee.Lat			L.Knee.Med			L.Shank.Upper.Post			L.Shank.Lower.Ant			L.Shank.Lower.Post			L.Shank.Upper.Ant			L.Ankle.Lat			L.Ankle.Med			L.Heel.Upper			L.Heel.Med			L.Heel.Lat			L.Toe.Lat			L.Toe.Med			L.Toe.Tip			Cervical.Spine			Back			
		X1	Y1	Z1	X2	Y2	Z2	X3	Y3	Z3	X4	Y4	Z4	X5	Y5	Z5	X6	Y6	Z6	X7	Y7	Z7	X8	Y8	Z8	X9	Y9	Z9	X10	Y10	Z10	X11	Y11	Z11	X12	Y12	Z12	X13	Y13	Z13	X14	Y14	Z14	X15	Y15	Z15	X16	Y16	Z16	X17	Y17	Z17	X18	Y18	Z18	X19	Y19	Z19	X20	Y20	Z20	X21	Y21	Z21	X22	Y22	Z22	X23	Y23	Z23	X24	Y24	Z24	X25	Y25	Z25	X26	Y26	Z26	X27	Y27	Z27	X28	Y28	Z28	X29	Y29	Z29	X30	Y30	Z30	X31	Y31	Z31	X32	Y32	Z32	X33	Y33	Z33	X34	Y34	Z34	X35	Y35	Z35	X36	Y36	Z36	X37	Y37	Z37	X38	Y38	Z38	X39	Y39	Z39	X40	Y40	Z40	X41	Y41	Z41	X42	Y42	Z42	X43	Y43	Z43	X44	Y44	Z44	X45	Y45	Z45	X46	Y46	Z46	X47	Y47	Z47	X48	Y48	Z48	X49	Y49	Z49	X50	Y50	Z50	X51	Y51	Z51	

201	0.83333	326.4	1224.6	332.17	164.62	1366.6	473.9	231.94	1414.3	178.51	122.35	1686.6	357.11	275.53	959.66	409.43	262.11	956.65	178.6	68.856	985.43	332.48	70.605	988.43	251.19	223.75	896.07	491.03	182.46	892.08	122.84	179.66	1043.9	458.28	203.57	1039.8	155.79	46.071	955.55	297.01	330.47	714.67	477.89	407.46	671.87	426.21	366.22	633.27	465.85	370.99	755.32	433.05	418.43	520.22	418.69	384.57	518.88	297.45	389.2	287.29	433.54	457.77	233.5	406.66	399.34	213.84	428.36	453.09	310.36	410.29	417.42	107.81	405.26	424.97	116.64	326.14	357.79	64.654	361.72	366.47	36.878	335.08	363.22	41.121	396.6	536.68	41.282	435.63	562.02	46.122	326.8	621.19	65.551	367.49	37.208	663.52	142.74	73.833	559.1	148.8	2.0513	576.34	162.29	110.74	639.25	130.62	-7.657	485.76	156.93	18.94	462.51	280.85	-195.93	374.91	153.49	-210.25	265.46	156.74	-247.63	317.19	159.23	-158.33	321.99	151.08	-315.93	200.44	164.02	-295.38	198.5	247.15	-370.68	234.24	208.44	-389.83	209.98	243.2	-394.66	211.85	177.81	-314.46	61.223	144.63	-290.53	51.192	250.12	-246.42	35.85	208.45	119.25	1444.9	322.37	42.776	1236.6	278.75
202	0.8375	332.75	1225.3	333.31	170.45	1367.1	474.4	238.44	1414.9	179.26	127.96	1687	357.98	281.74	960.48	410.6	268.45	956.98	179.74	75.033	986	332.92	76.746	988.83	251.69	229.84	896.88	491.94	189.12	892	123.94	185.63	1044.7	458.99	210.15	1040.1	156.69	52.368	955.93	297.51	336.52	715.11	478.64	413.48	672.28	426.93	372.13	633.67	466.43	377.15	755.78	433.94	423.84	520.28	419.06	391.18	519.82	297.57	392.02	287.7	433.57	459.96	233.08	406.61	401.27	214.14	428.3	456.21	309.98	410.3	417.9	107.96	405.01	425.68	116.81	326.02	357.88	64.687	361.71	366.51	36.924	335.08	363.27	41.212	396.6	536.73	41.312	435.61	562.15	45.814	326.68	621.35	65.004	367.4	45.182	661.96	143.69	82.703	557.85	149.34	10.875	574.41	163.03	118.89	638.42	131.25	1.7713	484.22	157.2	28.783	460.31	280.92	-187.28	375.89	153.58	-203.08	266.66	156.52	-239.76	318.89	159.15	-150.39	322.5	151.01	-309.34	203.1	163.54	-289.19	200.85	246.91	-362.74	238.49	207.82	-382.77	214.88	242.6	-387.36	216.86	177.16	-311.8	63.442	144.47	-288.3	52.757	250.16	-245.1	35.228	208.35	125.33	1445.4	322.84	49.068	1237.2	278.91
203	0.84167	339.02	1226	334.39	176.25	1367.7	474.89	244.86	1415.6	179.96	133.56	1687.5	358.84	287.92	961.29	411.73	274.69	957.35	180.84	81.168	986.58	333.41	82.866	989.25	252.22	235.92	897.63	492.84	195.67	891.97	125.06	191.6	1045.5	459.72	216.62	1040.5	157.57	58.602	956.33	298.07	342.44	715.44	479.38	419.35	672.55	427.65	377.86	633.95	467	383.23	756.12	434.83	429.03	520.24	419.46	397.54	520.62	297.73	394.68	288.06	433.58	462.03	232.64	406.6	403.07	214.4	428.23	459.18	309.58	410.36	418.34	108.1	404.77	426.36	116.97	325.9	357.96	64.708	361.7	366.55	36.963	335.07	363.32	41.294	396.59	536.77	41.356	435.6	562.27	45.553	326.57	621.48	64.525	367.32	53.192	660.41	144.62	91.636	556.62	149.85	19.764	572.47	163.73	127.07	637.61	131.85	11.307	482.67	157.44	38.736	458.11	280.97	-178.46	376.86	153.65	-195.74	267.87	156.32	-231.72	320.59	159.06	-142.29	322.99	150.96	-302.57	205.79	163.07	-282.83	203.26	246.71	-354.58	242.72	207.22	-375.47	219.78	242.03	-379.83	221.87	176.55	-308.95	65.785	144.33	-285.84	54.447	250.2	-243.64	34.623	208.21	131.37	1446	323.31	55.3	1237.7	279.11
204	0.84583	345.23	1226.7	335.42	182.03	1368.2	475.37	251.18	1416.3	180.63	139.15	1688	359.69	294.07	962.08	412.81	280.84	957.77	181.88	87.263	987.17	333.97	88.975	989.68	252.79	242.01	898.33	493.72	202.1	891.99	126.18	197.58	1046.3	460.44	222.95	1040.8	158.43	64.772	956.75	298.67	348.24	715.69	480.11	425.08	672.67	428.38	383.41	634.11	467.56	389.22	756.34	435.71	434	520.11	419.89	403.62	521.28	297.92	397.2	288.37	433.57	463.99	232.18	406.62	404.76	214.62	428.15	462	309.14	410.44	418.76	108.23	404.55	427.01	117.12	325.79	358.03	64.723	361.68	366.58	36.995	335.06	363.36	41.367	396.59	536.79	41.409	435.58	562.37	45.329	326.47	621.6	64.102	367.26	61.237	658.86	145.54	100.63	555.41	150.33	28.716	570.53	164.4	135.28	636.84	132.43	20.946	481.13	157.66	48.792	455.91	281	-169.46	377.81	153.68	-188.22	269.08	156.16	-223.49	322.27	158.96	-134.01	323.49	150.93	-295.61	208.5	162.64	-276.28	205.71	246.55	-346.22	246.91	206.65	-367.92	224.66	241.51	-372.08	226.84	175.99	-305.9	68.245	144.21	-283.13	56.258	250.25	-242.03	34.055	208.04	137.36	1446.6	323.77	61.468	1238.3	279.36
205	0.85	351.36	1227.5	336.38	187.79	1368.8	475.84	257.42	1417	181.26	144.75	1688.6	360.51	300.18	962.85	413.83	286.87	958.22	182.87	93.314	987.77	334.59	95.077	990.14	253.4	248.09	898.97	494.59	208.41	892.05	127.32	203.56	1047.1	461.18	229.14	1041.2	159.25	70.875	957.19	299.34	353.91	715.86	480.83	430.66	672.66	429.11	388.78	634.16	468.12	395.11	756.44	436.57	438.75	519.89	420.34	409.39	521.8	298.16	399.58	288.63	433.55	465.85	231.71	406.67	406.34	214.8	428.05	464.69	308.68	410.56	419.14	108.36	404.34	427.63	117.27	325.67	358.09	64.733	361.66	366.61	37.023	335.05	363.4	41.436	396.59	536.82	41.465	435.56	562.47	45.134	326.37	621.7	63.725	367.2	69.316	657.34	146.43	109.67	554.25	150.79	37.724	568.62	165.04	143.52	636.11	132.98	30.684	479.61	157.86	58.941	453.74	281.03	-160.31	378.76	153.69	-180.53	270.29	156.02	-215.09	323.95	158.85	-125.58	323.98	150.91	-288.46	211.24	162.24	-269.55	208.21	246.42	-337.66	251.05	206.11	-360.13	229.51	241.04	-364.12	231.78	175.48	-302.63	70.814	144.1	-280.15	58.183	250.31	-240.25	33.543	207.83	143.31	1447.2	324.22	67.574	1238.9	279.65
206	0.85417	357.42	1228.2	337.27	193.54	1369.4	476.3	263.55	1417.7	181.85	150.34	1689.2	361.31	306.25	963.59	414.79	292.81	958.71	183.8	99.322	988.38	335.27	101.17	990.62	254.06	254.17	899.57	495.44	214.59	892.16	128.46	209.57	1047.8	461.92	235.2	1041.6	160.05	76.91	957.65	300.07	359.46	715.95	481.52	436.1	672.52	429.85	393.96	634.12	468.66	400.9	756.44	437.43	443.3	519.6	420.81	414.82	522.18	298.43	401.83	288.85	433.51	467.6	231.22	406.76	407.81	214.94	427.95	467.24	308.19	410.71	419.52	108.47	404.14	428.21	117.41	325.56	358.15	64.741	361.64	366.64	37.048	335.04	363.43	41.5	396.59	536.84	41.522	435.54	562.56	44.962	326.27	621.79	63.385	367.15	77.429	655.85	147.3	118.77	553.12	151.22	46.787	566.74	165.65	151.8	635.43	133.51	40.517	478.11	158.04	69.174	451.62	281.05	-151	379.69	153.68	-172.66	271.51	155.92	-206.51	325.6	158.74	-116.98	324.46	150.91	-281.13	213.99	161.87	-262.62	210.74	246.32	-328.92	255.14	205.61	-352.11	234.32	240.63	-355.96	236.66	175.04	-299.12	73.487	144.01	-276.89	60.217	250.36	-238.29	33.107	207.59	149.22	1447.8	324.67	73.616	1239.6	280
